<svg width="216" height="361" viewBox="0 0 216 361" fill="none" xmlns="http://www.w3.org/2000/svg">
<path d="M180.477 360.954C280.151 360.954 360.954 280.151 360.954 180.477C360.954 80.8022 280.151 0 180.477 0C80.8022 0 0 80.8022 0 180.477C0 280.151 80.8022 360.954 180.477 360.954Z" fill="url(#paint0_linear_70_17)"/>
<path opacity="0.25" d="M180.477 319.644C257.337 319.644 319.644 257.337 319.644 180.477C319.644 103.617 257.337 41.3101 180.477 41.3101C103.618 41.3101 41.3105 103.617 41.3105 180.477C41.3105 257.337 103.618 319.644 180.477 319.644Z" fill="#2A62D1"/>
<path opacity="0.25" d="M180.477 285.929C238.717 285.929 285.929 238.716 285.929 180.477C285.929 122.237 238.717 75.0249 180.477 75.0249C122.238 75.0249 75.0254 122.237 75.0254 180.477C75.0254 238.716 122.238 285.929 180.477 285.929Z" fill="#2A62D1"/>
<defs>
<linearGradient id="paint0_linear_70_17" x1="175.224" y1="363.677" x2="185.58" y2="4.06139" gradientUnits="userSpaceOnUse">
<stop stop-color="#4DA3E7" stop-opacity="0"/>
<stop offset="0.5317" stop-color="#3C7ADD"/>
<stop offset="1" stop-color="#2E6AD4" stop-opacity="0"/>
</linearGradient>
</defs>
</svg>
