<svg xmlns="http://www.w3.org/2000/svg" viewBox="0 0 24 27"><defs><style>.cls-1{fill:#fff;}.cls-2{fill:#5b87d6;}</style></defs><g id="Layer_2" data-name="Layer 2"><g id="Layer_1-2" data-name="Layer 1"><polygon class="cls-1" points="12 0 0 6.75 0 20.25 12 27 24 20.25 24 6.75 12 0"/><polygon class="cls-1" points="20.89 7.37 12 13.5 3.11 7.49 12.14 2.32 20.89 7.37"/><polygon class="cls-1" points="11.16 24.03 12 13.5 3.08 19.48 11.16 24.03"/><polygon class="cls-1" points="12 13.5 2.26 9.03 2.26 18.12 12 13.5"/><polygon class="cls-1" points="12.78 24.03 12 13.5 20.86 19.48 12.78 24.03"/><polygon class="cls-1" points="12 13.5 21.68 9.03 21.68 18.12 12 13.5"/><polygon points="12 0 0 6.75 0 20.25 12 27 24 20.25 24 6.75 12 0"/><polygon class="cls-2" points="12.14 2.32 20.89 7.37 12 12.39 3.11 7.49 12.14 2.32"/><polygon class="cls-2" points="11.16 24.03 11.2 14.93 3.08 19.48 11.16 24.03"/><polygon class="cls-1" points="9.67 13.57 2.26 9.03 2.26 18.12 9.67 13.57"/><polygon class="cls-2" points="9.67 13.57 2.26 9.03 2.26 18.12 9.67 13.57"/><polygon class="cls-2" points="12.78 24.03 12.97 15.17 20.86 19.48 12.78 24.03"/><polygon class="cls-2" points="13.86 13.57 21.68 9.03 21.68 18.12 13.86 13.57"/><polygon points="12.17 6.85 6.13 10.25 6.13 17.04 12.17 20.43 18.2 17.04 18.2 10.25 12.17 6.85"/><polygon class="cls-1" points="12.06 8.47 15.46 10.43 12 12.39 8.54 10.48 12.06 8.47"/><polygon class="cls-1" points="11.63 14.11 11.55 18.29 7.8 16.16 7.8 11.96 11.63 14.11"/><polygon class="cls-1" points="16.5 16.26 12.74 18.29 12.77 14.06 16.5 11.96 16.5 16.26"/></g></g></svg>